<?xml version="1.0" encoding="UTF-8"?>
<svg version="1.1" xmlns="http://www.w3.org/2000/svg" width="718" height="674">
<path d="M0 0 C236.94 0 473.88 0 718 0 C718 222.42 718 444.84 718 674 C481.06 674 244.12 674 0 674 C0 451.58 0 229.16 0 0 Z " fill="#FEFEFE" transform="translate(0,0)"/>
<path d="M0 0 C1.04567139 0.0052066 2.09134277 0.01041321 3.16870117 0.01577759 C18.43409229 0.10482473 33.21803762 0.61457923 48.0625 4.5 C48.82240234 4.68723633 49.58230469 4.87447266 50.36523438 5.06738281 C66.24693663 9.06890832 77.55939526 17.16100824 89.0625 28.5 C89.75102051 29.16950684 90.43954102 29.83901367 91.14892578 30.52880859 C99.66665408 38.81576566 107.74827618 47.12502264 115.0625 56.5 C115.7946875 57.35335937 116.526875 58.20671875 117.28125 59.0859375 C125.25050917 68.39250386 135.79516463 81.20047448 135.43359375 94.046875 C132.94717621 110.48340356 114.2934947 125.46614778 103.1875 136.5625 C102.30980957 137.44010986 101.43211914 138.31771973 100.52783203 139.22192383 C95.36803327 144.33634387 90.18261215 149.16465419 84.4453125 153.625 C80.99532002 156.33974818 77.78350516 159.29852804 74.546875 162.26171875 C72.0625 164.5 72.0625 164.5 70.21337891 165.83813477 C65.99278615 168.99342442 65.99278615 168.99342442 64.4921875 173.94140625 C64.6033475 175.31862196 64.75562901 176.69282756 64.9375 178.0625 C65.00976807 178.85785156 65.08203613 179.65320313 65.15649414 180.47265625 C65.32923069 182.3609223 65.51790998 184.24776484 65.71826172 186.13330078 C66.11367188 190.00046827 66.4403886 193.87163553 66.75390625 197.74609375 C66.8137822 198.48509415 66.87365814 199.22409454 66.93534851 199.98548889 C67.06001154 201.52959339 67.18430718 203.07372758 67.30825806 204.6178894 C67.5026251 207.03261304 67.69969823 209.44710453 67.8972168 211.86157227 C70.82946432 247.83844958 73.22131262 284.31903094 70.25 320.375 C70.18006836 321.2402832 70.11013672 322.10556641 70.03808594 322.99707031 C69.52108194 327.99614885 68.53239066 332.08989219 66.0625 336.5 C63.95776367 337.18701172 63.95776367 337.18701172 62.0625 337.5 C56.03582451 327.58729285 51.31590493 317.53081482 47.0625 306.75 C46.42062424 305.14410388 45.77827782 303.53839582 45.13549805 301.93286133 C36.29318528 279.76329999 27.83293687 257.43550377 19.5625 235.046875 C19.01594111 233.57199481 18.46931209 232.09714061 17.92260742 230.62231445 C16.924302 227.92868874 15.93598628 225.23171952 14.9543457 222.53198242 C11.44327033 212.54342137 11.44327033 212.54342137 6.0625 203.5 C2.64445328 201.76093755 2.64445328 201.76093755 -0.9375 202.5 C-5.83529465 207.24206191 -7.82341744 212.5522384 -10.125 218.875 C-10.74133301 220.51758789 -10.74133301 220.51758789 -11.37011719 222.19335938 C-12.60924609 225.50180716 -13.83692382 228.81416834 -15.06072998 232.1282959 C-18.25132135 240.75899547 -21.4680062 249.38004873 -24.6875 258 C-25.07487335 259.03744354 -25.4622467 260.07488708 -25.86135864 261.14376831 C-34.1431014 283.29224538 -42.67653261 305.38242141 -52.5625 326.875 C-53.00456787 327.84747681 -53.00456787 327.84747681 -53.45556641 328.83959961 C-55.13291406 332.35397211 -56.92575888 335.00858 -59.9375 337.5 C-62.0625 337.5625 -62.0625 337.5625 -63.9375 336.5 C-70.11387095 323.28691107 -68.29102695 306.6730959 -68.25 292.5 C-68.24884186 291.26779724 -68.24768372 290.03559448 -68.24649048 288.76605225 C-68.19627186 261.5879101 -66.46943905 234.67391804 -64.0703125 207.6171875 C-64.00099014 206.8353006 -63.93166779 206.0534137 -63.86024475 205.24783325 C-63.53837545 201.64303962 -63.20732157 198.03967432 -62.85229492 194.43798828 C-62.50439003 190.79373699 -62.20333446 187.15109788 -61.9375 183.5 C-61.843479 182.3130957 -61.74945801 181.12619141 -61.65258789 179.90332031 C-61.18238924 172.87069649 -61.18238924 172.87069649 -64.39453125 166.921875 C-65.48111654 165.99259342 -66.60189593 165.10210849 -67.75 164.25 C-68.34167969 163.75951172 -68.93335938 163.26902344 -69.54296875 162.76367188 C-71.31490714 161.30543503 -73.1204813 159.90139416 -74.9375 158.5 C-76.7734043 157.0031478 -78.60694065 155.50338404 -80.4375 154 C-81.3346875 153.27554688 -82.231875 152.55109375 -83.15625 151.8046875 C-98.98602508 138.6873177 -115.68822376 123.78226045 -126.9375 106.5 C-127.47761719 105.71625 -128.01773438 104.9325 -128.57421875 104.125 C-132.03162913 98.66892225 -133.22781882 93.89508379 -131.9375 87.5 C-121.85317147 59.2874233 -89.04486291 24.33548708 -63 10.25 C-61.65751397 9.64026531 -60.3022668 9.05808308 -58.9375 8.5 C-58.16148437 8.17515625 -57.38546875 7.8503125 -56.5859375 7.515625 C-38.5450767 0.75680107 -19.0515824 -0.19723356 0 0 Z " fill="#468E4B" transform="translate(349.9375,227.5)"/>
<path d="M0 0 C1.07314453 0.00021149 2.14628906 0.00042297 3.25195312 0.00064087 C18.75075946 0.03121994 33.67390486 0.42895119 48.75 4.375 C49.50990234 4.56223633 50.26980469 4.74947266 51.05273438 4.94238281 C66.93443663 8.94390832 78.24689526 17.03600824 89.75 28.375 C90.43852051 29.04450684 91.12704102 29.71401367 91.83642578 30.40380859 C100.35415408 38.69076566 108.43577618 47.00002264 115.75 56.375 C116.4821875 57.22835937 117.214375 58.08171875 117.96875 58.9609375 C125.93800917 68.26750386 136.48266463 81.07547448 136.12109375 93.921875 C133.63467621 110.35840356 114.9809947 125.34114778 103.875 136.4375 C102.99730957 137.31510986 102.11961914 138.19271973 101.21533203 139.09692383 C96.05553327 144.21134387 90.87011215 149.03965419 85.1328125 153.5 C81.68282002 156.21474818 78.47100516 159.17352804 75.234375 162.13671875 C72.75 164.375 72.75 164.375 70.90087891 165.71313477 C66.68028615 168.86842442 66.68028615 168.86842442 65.1796875 173.81640625 C65.2908475 175.19362196 65.44312901 176.56782756 65.625 177.9375 C65.69726807 178.73285156 65.76953613 179.52820313 65.84399414 180.34765625 C66.01673069 182.2359223 66.20540998 184.12276484 66.40576172 186.00830078 C66.80117188 189.87546827 67.1278886 193.74663553 67.44140625 197.62109375 C67.5012822 198.36009415 67.56115814 199.09909454 67.62284851 199.86048889 C67.74751154 201.40459339 67.87180718 202.94872758 67.99575806 204.4928894 C68.1901251 206.90761304 68.38719823 209.32210453 68.5847168 211.73657227 C76.74305376 311.83435926 76.74305376 311.83435926 67.75 335.375 C66.53378591 331.72635773 66.94434708 328.6839901 67.265625 324.9296875 C67.97171726 315.03201988 67.31290944 305.37140571 66.5 295.5 C66.35833946 293.68866935 66.21706812 291.87730823 66.07617188 290.06591797 C64.94649167 275.79987596 63.59276784 261.56834025 61.75 247.375 C61.64751953 246.56192383 61.54503906 245.74884766 61.43945312 244.91113281 C55.29320473 197.40826529 41.05970907 148.73520709 18.75 106.375 C18.20085937 105.29734375 17.65171875 104.2196875 17.0859375 103.109375 C9.29227347 88.11303568 -0.34462599 74.44736499 -10.80419922 61.21142578 C-12.03212232 59.65174366 -13.23909363 58.07560248 -14.44140625 56.49609375 C-25.67757283 42.09357103 -39.56725864 28.51472641 -54.5625 18.0625 C-55.16900391 17.63388672 -55.77550781 17.20527344 -56.40039062 16.76367188 C-58.9956754 14.93355357 -61.60760829 13.13659447 -64.25 11.375 C-55.74982972 6.80662654 -47.06487301 4.60802434 -37.65966797 2.83300781 C-36.04397326 2.52591123 -34.43324433 2.19152232 -32.82861328 1.83105469 C-22.01951093 -0.3609599 -10.97959205 -0.01979494 0 0 Z " fill="#88BF62" transform="translate(349.25,227.625)"/>
<path d="M0 0 C9.07982321 8.48564255 16.2604414 20.86262851 16.953125 33.4375 C17.27179011 50.77852947 13.44532718 64.57088589 1.23046875 77.4609375 C-10.82908887 88.58991508 -25.13678522 92.3244359 -41.2109375 92.02734375 C-46.72760024 91.76862951 -51.30954277 90.1605252 -56.25 87.75 C-57.18585938 87.30269531 -58.12171875 86.85539062 -59.0859375 86.39453125 C-71.62045409 79.98990839 -81.10786014 70.31318502 -85.70703125 56.8125 C-90.06801904 42.08898315 -89.55279094 27.95856363 -82.5625 14.1875 C-74.8152774 0.73877617 -63.1824911 -8.00809366 -48.25 -12.25 C-31.4371577 -16.54264059 -13.17556633 -10.70672216 0 0 Z " fill="#2E7142" transform="translate(387.25,124.25)"/>
<path d="M0 0 C3.37047146 2.5278536 4.75051242 5.0330275 6 9 C6.2139403 11.90653182 6.3272413 14.71437854 6.3359375 17.62109375 C6.34404449 18.46612961 6.35215149 19.31116547 6.36050415 20.18180847 C6.37944233 22.93385866 6.37929132 25.68539333 6.375 28.4375 C6.3764502 29.37108337 6.37790039 30.30466675 6.37939453 31.26654053 C6.37650064 48.13540407 4.92415142 64.37666581 2 81 C-10.70651801 68.6975762 -27.98430035 47.64025823 -29.75 29.4375 C-29.03720371 19.04568039 -19.25839659 10.4880195 -12 4 C-8.20460259 0.74319557 -5.13159209 -0.8924508 0 0 Z " fill="#FDFDFD" transform="translate(289,296)"/>
<path d="M0 0 C4.60873423 1.39131599 7.64843452 3.94890788 11.3125 7 C11.99828125 7.54011719 12.6840625 8.08023437 13.390625 8.63671875 C19.41430679 13.56832083 25.78029664 20.2988703 26.6875 28.3125 C26.4377515 42.12359218 16.44922107 54.24874636 8.25390625 64.5546875 C5.75901177 67.69715016 3.31770909 70.87940656 0.875 74.0625 C0.0013457 75.19925227 -0.87234859 76.33597381 -1.74609375 77.47265625 C-2.38675781 78.30667969 -3.02742188 79.14070313 -3.6875 80 C-12.77849033 63.74985478 -12.7618624 28.59762564 -8.89453125 10.74609375 C-5.81579308 0 -5.81579308 0 0 0 Z " fill="#FDFEFD" transform="translate(416.6875,296)"/>
<path d="M0 0 C0.33 0 0.66 0 1 0 C1.79122008 14.81814808 2.20177542 29.59851744 2.1875 44.4375 C2.18756042 45.41292755 2.18762085 46.3883551 2.18768311 47.39334106 C2.15447367 85.12505422 2.15447367 85.12505422 -2 96 C-3.21318938 92.36043185 -2.80589933 90.01497518 -2.4375 86.1875 C-1.68214983 76.5377135 -2.50090302 67.05088885 -3.23364258 57.42016602 C-4.05671683 46.25770472 -4.20930367 35.1861181 -4 24 C-3.01 23.67 -2.02 23.34 -1 23 C-0.67 15.41 -0.34 7.82 0 0 Z " fill="#A0CA6C" transform="translate(419,467)"/>
<path d="M0 0 C0.76094303 4.28030452 1.13555542 8.463606 1.25 12.8125 C1.27578125 13.74707031 1.3015625 14.68164062 1.328125 15.64453125 C1.16570312 16.81048828 1.16570312 16.81048828 1 18 C0.01 18.66 -0.98 19.32 -2 20 C-3.26582219 16.13276369 -3.1118765 12.26848738 -3.0625 8.25 C-3.05798828 7.55261719 -3.05347656 6.85523438 -3.04882812 6.13671875 C-3.0371002 4.42444197 -3.01916653 2.71220967 -3 1 C-1 0 -1 0 0 0 Z " fill="#97CE6F" transform="translate(418,490)"/>
<path d="M0 0 C0.33 0 0.66 0 1 0 C2.2414236 5.4987945 2.18398035 10.82366045 2.1875 16.4375 C2.19974609 17.46166016 2.21199219 18.48582031 2.22460938 19.54101562 C2.23473403 24.7552107 2.11376897 29.12914106 0 34 C-1.24372182 30.26883454 -0.85773456 27.03744356 -0.5625 23.1875 C-0.02987449 15.43984099 0.11079773 7.76815204 0 0 Z " fill="#73B559" transform="translate(417,529)"/>
<path d="M0 0 C0 5.21389341 -4.49364182 8.42033817 -8 12 C-10.28756791 14.06142051 -12.63768371 16.023368 -15 18 C-15.33 18.66 -15.66 19.32 -16 20 C-16.66 20 -17.32 20 -18 20 C-18 20.66 -18 21.32 -18 22 C-18.99 21.67 -19.98 21.34 -21 21 C-14.07 14.07 -7.14 7.14 0 0 Z " fill="#46794D" transform="translate(270,250)"/>
<path d="M0 0 C5.66153846 1.47692308 5.66153846 1.47692308 7.375 4.125 C7.684375 5.053125 7.684375 5.053125 8 6 C8.66 6 9.32 6 10 6 C10.99 7.485 10.99 7.485 12 9 C12.99 9.33 13.98 9.66 15 10 C14.67 10.99 14.34 11.98 14 13 C11.8506749 11.2123833 9.70549393 9.42017816 7.5625 7.625 C6.95083984 7.11710937 6.33917969 6.60921875 5.70898438 6.0859375 C1.11328125 2.2265625 1.11328125 2.2265625 0 0 Z " fill="#416E44" transform="translate(262,374)"/>
<path d="M0 0 C0.99 1.485 0.99 1.485 2 3 C2.66 2.67 3.32 2.34 4 2 C3.84152588 2.57975586 3.68305176 3.15951172 3.51977539 3.75683594 C2.71911382 7.21220398 2.62776918 10.71910303 2.4375 14.25 C2.39431641 14.99507812 2.35113281 15.74015625 2.30664062 16.5078125 C2.20103275 18.338349 2.10005799 20.16915176 2 22 C1.67 22 1.34 22 1 22 C0.67 14.74 0.34 7.48 0 0 Z " fill="#7BBA62" transform="translate(415,506)"/>
<path d="M0 0 C0.33 0 0.66 0 1 0 C2.03352411 5.39729256 2.33070829 10.6077386 1 16 C0.34 16.33 -0.32 16.66 -1 17 C-1.02691685 14.54159395 -1.04679802 12.08348118 -1.0625 9.625 C-1.07087891 8.92632812 -1.07925781 8.22765625 -1.08789062 7.5078125 C-1.11328125 2.2265625 -1.11328125 2.2265625 0 0 Z " fill="#407D46" transform="translate(285,463)"/>
<path d="M0 0 C1.9375 0.375 1.9375 0.375 4 1 C4.33 1.66 4.66 2.32 5 3 C5.99 3.33 6.98 3.66 8 4 C8.99 5.485 8.99 5.485 10 7 C9.67 7.99 9.34 8.98 9 10 C7.49702124 8.52386015 5.99768715 7.04400843 4.5 5.5625 C3.6646875 4.73878906 2.829375 3.91507812 1.96875 3.06640625 C0 1 0 1 0 0 Z " fill="#39693B" transform="translate(239,352)"/>
<path d="M0 0 C0.66 0 1.32 0 2 0 C3.36363208 1.97946592 4.69418644 3.9819245 6 6 C7.62351109 7.79394446 7.62351109 7.79394446 9 9 C8.67 9.99 8.34 10.98 8 12 C1.48063781 4.88610478 1.48063781 4.88610478 0 0 Z " fill="#426E46" transform="translate(223,332)"/>
</svg>
